<?xml version="1.0" encoding="UTF-8" standalone="no"?>
<!DOCTYPE svg PUBLIC "-//W3C//DTD SVG 1.1//EN" "http://www.w3.org/Graphics/SVG/1.1/DTD/svg11.dtd">
<svg version="1.1" xmlns="http://www.w3.org/2000/svg" xmlns:xlink="http://www.w3.org/1999/xlink" preserveAspectRatio="xMidYMid meet" viewBox="0 0 640 640" width="640" height="640"><defs><path d="M120 74.39L72.53 46.39" id="a3zYonHfbn"></path><path d="" id="a1Ih561wXt"></path><path d="" id="b8e9OHKRQ"></path><path d="M88.53 113.89C76.86 76.23 71.53 53.73 72.53 46.39" id="e98DjWK5c"></path><path d="M77.02 158.5C75.36 150.5 77.52 139.33 83.52 125" id="g2KKyIYkEv"></path><path d="M85.9 137.11C81.85 142.03 78.94 149.05 77.15 158.18" id="c1UqXyKzQw"></path><path d="M83.03 123.39C68.03 125.73 57.02 135.43 50 152.5" id="afM9mzIFx"></path><path d="M118.03 141.39C111.36 146.39 104.53 152.23 97.53 158.89" id="d5ZSLbJICh"></path><path d="M117.03 216.39C105.03 278.39 141.03 278.89 122.53 271.89C104.03 264.89 111.53 222.39 112.03 208.89C112.36 199.89 111.11 179.89 108.28 148.89L107.53 129.25" id="nmwo66hsF"></path><path d="M146.53 270C119.32 265 109.15 247.46 116.03 217.39" id="h4QhQs7yg"></path><path d="M130 213.39C131.98 241.06 137.16 259.23 145.53 267.89" id="b1gPbjpWrK"></path><path d="M157.53 234.39C140.86 230.39 131.68 223.06 130 212.39" id="a3EJ68qGo"></path><path d="M126.53 176.39C133.53 213.73 144.68 233.06 160 234.39" id="afAzhrgEH"></path><path d="M13.5 109.7C44.17 95.44 68.5 96.9 86.5 114.1" id="cmpowr3VU"></path><path d="M43.25 106.06C40.58 104.06 31.17 105.06 15 109.06" id="b6P3fwCuh"></path><path d="M43.28 106.39C19.61 125.06 12.61 142.93 22.28 160" id="alftMiD6c"></path><path d="M57.12 129.25C53.52 130.27 48.16 133.16 41.03 137.91C41.03 137.91 41.03 137.91 41.03 137.91C33.96 142.88 27.7 150.24 22.25 160" id="b3VTPSmeCS"></path><path d="M50 152.39C48.32 147.06 50.82 139.23 57.53 128.89" id="b1zXEGLLz"></path><path d="" id="b1gglMiDEZ"></path><path d="M92.03 128.64C85.36 143.98 79.53 152.14 74.53 153.14C67.03 154.64 65.03 142.64 66.03 138.64C66.69 135.98 72.36 131.14 83.03 124.14" id="ai1Ck6y6n"></path><path d="M97.99 158.03C92.82 149.36 90.65 139.61 91.49 128.78" id="b2II8F2KKz"></path><path d="M220.78 68.37L264.35 34.61" id="a1TUT0xh4q"></path><path d="" id="eqJ1Xi8nF"></path><path d="" id="eTNJfKOWD"></path><path d="M256.99 103.59C263.81 64.75 266.26 41.76 264.35 34.61" id="cllLJ6FOZ"></path><path d="M274.03 146.39C274.67 138.24 271.11 127.44 263.35 113.97" id="cKwSTcXam"></path><path d="M262.52 126.29C267.16 130.66 270.93 137.26 273.85 146.08" id="c3ClCazE4r"></path><path d="M263.64 112.32C278.82 112.74 290.96 120.98 300.08 137.03" id="ahVOioqaU"></path><path d="M231.19 134.59C238.44 138.71 245.95 143.63 253.74 149.36" id="cpxb5ZlXM"></path><path d="M241.64 208.86C261.37 268.86 225.72 273.89 243.19 264.61C260.66 255.34 247.86 214.12 245.66 200.79C244.19 191.91 242.91 171.91 241.81 140.8L240.08 121.22" id="c2U2SHChLX"></path><path d="M219.14 265.76C245.5 257.37 253.37 238.69 242.76 209.73" id="cgMU2LHEo"></path><path d="M228.39 207.52C229.92 235.22 227.07 253.89 219.87 263.55" id="b3WdpBERK8"></path><path d="M203.74 231.83C219.77 225.76 227.94 217.33 228.27 206.53" id="d12rF6SDi0"></path><path d="M227.17 170.38C224.94 208.3 216.31 228.89 201.28 232.14" id="d1S5843GyL"></path><path d="M330.89 89.97C298.67 79.68 274.71 84.21 259.02 103.53" id="d46Doa04vF"></path><path d="M300.91 90.1C303.31 87.78 312.78 87.59 329.32 89.52" id="a5pnhNofHF"></path><path d="M300.93 90.44C326.76 105.97 335.96 122.82 328.52 140.97" id="amCYZnk1x"></path><path d="M290.08 114.86C293.78 115.42 299.46 117.61 307.13 121.42C307.13 121.42 307.13 121.42 307.13 121.42C314.77 125.46 321.91 131.97 328.55 140.97" id="cOVe90Kmh"></path><path d="M300.06 136.92C301.06 131.42 297.58 123.96 289.63 114.56" id="a5nVyiItZ"></path><path d="" id="b7OwL6M0T"></path><path d="M255.38 118.66C263.92 133.03 270.74 140.4 275.83 140.76C283.46 141.3 283.93 129.14 282.43 125.3C281.43 122.74 275.2 118.66 263.74 113.06" id="fELhOTj7x"></path><path d="M253.17 148.56C257.2 139.31 258.12 129.37 255.93 118.72" id="ahlvSwvO3"></path><path d="M220 70.32C184.31 54.32 149.82 55.65 116.54 74.32" id="a7AeKIb6jT"></path><path d="M223.54 188.32C192.87 205.65 161.54 205.65 129.54 188.32" id="bOabQHf4g"></path></defs><g><g><g><g><use xlink:href="#a3zYonHfbn" opacity="1" fill-opacity="0" stroke="#000000" stroke-width="1" stroke-opacity="1"></use></g></g><g><g><use xlink:href="#a1Ih561wXt" opacity="1" fill-opacity="0" stroke="#000000" stroke-width="1" stroke-opacity="1"></use></g></g><g><g><use xlink:href="#b8e9OHKRQ" opacity="1" fill-opacity="0" stroke="#000000" stroke-width="1" stroke-opacity="1"></use></g></g><g><g><use xlink:href="#e98DjWK5c" opacity="1" fill-opacity="0" stroke="#000000" stroke-width="1" stroke-opacity="1"></use></g></g><g><g><use xlink:href="#g2KKyIYkEv" opacity="1" fill-opacity="0" stroke="#000000" stroke-width="1" stroke-opacity="1"></use></g></g><g><g><use xlink:href="#c1UqXyKzQw" opacity="1" fill-opacity="0" stroke="#000000" stroke-width="1" stroke-opacity="1"></use></g></g><g><g><use xlink:href="#afM9mzIFx" opacity="1" fill-opacity="0" stroke="#000000" stroke-width="1" stroke-opacity="1"></use></g></g><g><g><use xlink:href="#d5ZSLbJICh" opacity="1" fill-opacity="0" stroke="#000000" stroke-width="1" stroke-opacity="1"></use></g></g><g><g><use xlink:href="#nmwo66hsF" opacity="1" fill-opacity="0" stroke="#000000" stroke-width="1" stroke-opacity="1"></use></g></g><g><g><use xlink:href="#h4QhQs7yg" opacity="1" fill-opacity="0" stroke="#000000" stroke-width="1" stroke-opacity="1"></use></g></g><g><g><use xlink:href="#b1gPbjpWrK" opacity="1" fill-opacity="0" stroke="#000000" stroke-width="1" stroke-opacity="1"></use></g></g><g><g><use xlink:href="#a3EJ68qGo" opacity="1" fill-opacity="0" stroke="#000000" stroke-width="1" stroke-opacity="1"></use></g></g><g><g><use xlink:href="#afAzhrgEH" opacity="1" fill-opacity="0" stroke="#000000" stroke-width="1" stroke-opacity="1"></use></g></g><g><g><use xlink:href="#cmpowr3VU" opacity="1" fill-opacity="0" stroke="#000000" stroke-width="1" stroke-opacity="1"></use></g></g><g><g><use xlink:href="#b6P3fwCuh" opacity="1" fill-opacity="0" stroke="#000000" stroke-width="1" stroke-opacity="1"></use></g></g><g><g><use xlink:href="#alftMiD6c" opacity="1" fill-opacity="0" stroke="#000000" stroke-width="1" stroke-opacity="1"></use></g></g><g><g><use xlink:href="#b3VTPSmeCS" opacity="1" fill-opacity="0" stroke="#000000" stroke-width="1" stroke-opacity="1"></use></g></g><g><g><use xlink:href="#b1zXEGLLz" opacity="1" fill-opacity="0" stroke="#000000" stroke-width="1" stroke-opacity="1"></use></g></g><g><g><use xlink:href="#b1gglMiDEZ" opacity="1" fill-opacity="0" stroke="#000000" stroke-width="1" stroke-opacity="1"></use></g></g><g><g><use xlink:href="#ai1Ck6y6n" opacity="1" fill-opacity="0" stroke="#000000" stroke-width="1" stroke-opacity="1"></use></g></g><g><g><use xlink:href="#b2II8F2KKz" opacity="1" fill-opacity="0" stroke="#000000" stroke-width="1" stroke-opacity="1"></use></g></g><g><g><use xlink:href="#a1TUT0xh4q" opacity="1" fill-opacity="0" stroke="#000000" stroke-width="1" stroke-opacity="1"></use></g></g><g><g><use xlink:href="#eqJ1Xi8nF" opacity="1" fill-opacity="0" stroke="#000000" stroke-width="1" stroke-opacity="1"></use></g></g><g><g><use xlink:href="#eTNJfKOWD" opacity="1" fill-opacity="0" stroke="#000000" stroke-width="1" stroke-opacity="1"></use></g></g><g><g><use xlink:href="#cllLJ6FOZ" opacity="1" fill-opacity="0" stroke="#000000" stroke-width="1" stroke-opacity="1"></use></g></g><g><g><use xlink:href="#cKwSTcXam" opacity="1" fill-opacity="0" stroke="#000000" stroke-width="1" stroke-opacity="1"></use></g></g><g><g><use xlink:href="#c3ClCazE4r" opacity="1" fill-opacity="0" stroke="#000000" stroke-width="1" stroke-opacity="1"></use></g></g><g><g><use xlink:href="#ahVOioqaU" opacity="1" fill-opacity="0" stroke="#000000" stroke-width="1" stroke-opacity="1"></use></g></g><g><g><use xlink:href="#cpxb5ZlXM" opacity="1" fill-opacity="0" stroke="#000000" stroke-width="1" stroke-opacity="1"></use></g></g><g><g><use xlink:href="#c2U2SHChLX" opacity="1" fill-opacity="0" stroke="#000000" stroke-width="1" stroke-opacity="1"></use></g></g><g><g><use xlink:href="#cgMU2LHEo" opacity="1" fill-opacity="0" stroke="#000000" stroke-width="1" stroke-opacity="1"></use></g></g><g><g><use xlink:href="#b3WdpBERK8" opacity="1" fill-opacity="0" stroke="#000000" stroke-width="1" stroke-opacity="1"></use></g></g><g><g><use xlink:href="#d12rF6SDi0" opacity="1" fill-opacity="0" stroke="#000000" stroke-width="1" stroke-opacity="1"></use></g></g><g><g><use xlink:href="#d1S5843GyL" opacity="1" fill-opacity="0" stroke="#000000" stroke-width="1" stroke-opacity="1"></use></g></g><g><g><use xlink:href="#d46Doa04vF" opacity="1" fill-opacity="0" stroke="#000000" stroke-width="1" stroke-opacity="1"></use></g></g><g><g><use xlink:href="#a5pnhNofHF" opacity="1" fill-opacity="0" stroke="#000000" stroke-width="1" stroke-opacity="1"></use></g></g><g><g><use xlink:href="#amCYZnk1x" opacity="1" fill-opacity="0" stroke="#000000" stroke-width="1" stroke-opacity="1"></use></g></g><g><g><use xlink:href="#cOVe90Kmh" opacity="1" fill-opacity="0" stroke="#000000" stroke-width="1" stroke-opacity="1"></use></g></g><g><g><use xlink:href="#a5nVyiItZ" opacity="1" fill-opacity="0" stroke="#000000" stroke-width="1" stroke-opacity="1"></use></g></g><g><g><use xlink:href="#b7OwL6M0T" opacity="1" fill-opacity="0" stroke="#000000" stroke-width="1" stroke-opacity="1"></use></g></g><g><g><use xlink:href="#fELhOTj7x" opacity="1" fill-opacity="0" stroke="#000000" stroke-width="1" stroke-opacity="1"></use></g></g><g><g><use xlink:href="#ahlvSwvO3" opacity="1" fill-opacity="0" stroke="#000000" stroke-width="1" stroke-opacity="1"></use></g></g><g><g><use xlink:href="#a7AeKIb6jT" opacity="1" fill-opacity="0" stroke="#000000" stroke-width="1" stroke-opacity="1"></use></g></g><g><g><use xlink:href="#bOabQHf4g" opacity="1" fill-opacity="0" stroke="#000000" stroke-width="1" stroke-opacity="1"></use></g></g></g></g></svg>